<?xml version="1.0" encoding="UTF-8"?>
<svg width="349px" height="88px" viewBox="0 0 349 88" version="1.1" xmlns="http://www.w3.org/2000/svg" xmlns:xlink="http://www.w3.org/1999/xlink">
    <title>logo</title>
    <g id="logo" stroke="none" stroke-width="1" fill="none" fill-rule="evenodd">
        <g id="sqltags``" transform="translate(3.6862, 9.7575)" fill-rule="nonzero">
            <path d="M14.6295703,48.8739063 C16.6638672,48.8739063 18.2886133,48.525293 19.5038086,47.8280664 C20.7190039,47.1308398 21.3266016,46.1408594 21.3266016,44.858125 C21.3266016,44.0158333 21.1281315,43.3000716 20.7311914,42.7108398 C20.3342513,42.1216081 19.5492578,41.5715625 18.3762109,41.0607031 C17.2031641,40.5498438 15.4478255,39.9861719 13.1101953,39.3696875 C10.9147526,38.7945052 8.98641927,38.0911849 7.32519531,37.2597266 C5.66397135,36.4282682 4.37353516,35.3535677 3.45388672,34.035625 C2.53423828,32.7176823 2.07441406,31.0491797 2.07441406,29.0301172 C2.07441406,27.0185026 2.63833984,25.2477604 3.76619141,23.7178906 C4.89404297,22.1880208 6.52539062,20.9919531 8.66023437,20.1296875 C10.7950781,19.2674219 13.3591927,18.8362891 16.3525781,18.8362891 C19.3178646,18.8362891 21.9023763,19.2214648 24.1061133,19.9918164 C26.3098503,20.762168 28.201875,21.7276042 29.7821875,22.888125 L26.2853906,28.1058984 C24.9024479,27.2175651 23.4022852,26.5006185 21.7849023,25.9550586 C20.1675195,25.4094987 18.4308854,25.1367188 16.575,25.1367188 C14.5427344,25.1367188 13.0661003,25.4277799 12.1450977,26.0099023 C11.2240951,26.5920247 10.7635938,27.4034245 10.7635938,28.4441016 C10.7635938,29.1760286 10.9982878,29.7942904 11.4676758,30.2988867 C11.9370638,30.8034831 12.7831641,31.2925065 14.0059766,31.765957 C15.2287891,32.2394076 16.9756641,32.7982552 19.2466016,33.4425 C21.4782682,34.0589844 23.4242904,34.7788932 25.084668,35.6022266 C26.7450456,36.4255599 28.0331966,37.5178646 28.9491211,38.8791406 C29.8650456,40.2404167 30.3230078,42.0270703 30.3230078,44.2391016 C30.3230078,46.7233203 29.5945508,48.780638 28.1376367,50.4110547 C26.6807227,52.0414714 24.7642383,53.25125 22.3881836,54.0403906 C20.0121289,54.8295313 17.4387891,55.2241016 14.6681641,55.2241016 C11.4195182,55.2241016 8.5828776,54.756237 6.15824219,53.8205078 C3.73360677,52.8847786 1.68085937,51.686849 0,50.2267188 L4.44539062,45.2075 C5.78872396,46.2708594 7.31817057,47.1477669 9.03373047,47.8382227 C10.7492904,48.5286784 12.6145703,48.8739063 14.6295703,48.8739063 Z" id="Path" fill="#4E60B4"></path>
            <path d="M52.3051953,18.8362891 C54.1400911,18.8362891 55.8039388,19.1843099 57.2967383,19.8803516 C58.7895378,20.5763932 60.0764193,21.5959115 61.1573828,22.9389063 L61.6123828,19.833125 L69.0685938,19.833125 L69.0685938,68.4201172 L60.4885938,67.4882812 L60.4885938,50.8482813 C59.4039063,52.2335938 58.1069531,53.3092253 56.5977344,54.0751758 C55.0885156,54.8411263 53.3477344,55.2241016 51.3753906,55.2241016 C48.3877604,55.2241016 45.9637174,54.4691536 44.1032617,52.9592578 C42.242806,51.449362 40.8880469,49.3293294 40.0389844,46.5991602 C39.1899219,43.8689909 38.7653906,40.6669792 38.7653906,36.993125 C38.7653906,33.4807552 39.2869987,30.3590625 40.3302148,27.6280469 C41.373431,24.8970313 42.9036393,22.7489844 44.9208398,21.1839063 C46.9380404,19.6188281 49.3994922,18.8362891 52.3051953,18.8362891 Z M54.5273828,25.2525 C52.3079036,25.2525 50.6131641,26.1889063 49.4431641,28.0617188 C48.2731641,29.9345313 47.6881641,32.9245313 47.6881641,37.0317188 C47.6881641,39.9110156 47.931237,42.2026042 48.4173828,43.9064844 C48.9035286,45.6103646 49.6080339,46.8341081 50.5308984,47.5777148 C51.453763,48.3213216 52.5692578,48.693125 53.8773828,48.693125 C55.321263,48.693125 56.586224,48.2818815 57.6722656,47.4593945 C58.7583073,46.6369076 59.6970833,45.5788802 60.4885938,44.2853125 L60.4885938,28.6258984 C59.7404167,27.5615234 58.8751042,26.7331966 57.8926563,26.140918 C56.9102083,25.5486393 55.7884505,25.2525 54.5273828,25.2525 Z" id="Shape" fill="#4E60B4"></path>
            <path d="M95.9181641,6.09171875 L95.9181641,44.2325 C95.9181641,45.7247917 96.3605534,46.7878971 97.245332,47.4218164 C98.1301107,48.0557357 99.3127214,48.3726953 100.793164,48.3726953 C101.73431,48.3726953 102.635592,48.2683398 103.497012,48.0596289 C104.358431,47.850918 105.184896,47.5910026 105.976406,47.2798828 L108.093984,53.1253125 C107.012005,53.6791667 105.694655,54.1674284 104.141934,54.5900977 C102.589212,55.0127669 100.797904,55.2241016 98.7680078,55.2241016 C95.0071484,55.2241016 92.1619596,54.1532096 90.2324414,52.0114258 C88.3029232,49.8696419 87.3381641,46.9685938 87.3381641,43.3082813 L87.3381641,12.1610938 L77.0514063,12.1610938 L77.0514063,6.09171875 L95.9181641,6.09171875 Z" id="Path" fill="#4E60B4"></path>
            <path d="M148.265,52.333125 C146.980234,53.1645833 145.425566,53.8542773 143.600996,54.402207 C141.776426,54.9501367 139.81043,55.2241016 137.703008,55.2241016 C133.489857,55.2241016 130.322799,54.1363672 128.201836,51.9608984 C126.080872,49.7854297 125.020391,46.8795573 125.020391,43.2432813 L125.020391,25.9146875 L117.553008,25.9146875 L117.553008,19.833125 L125.020391,19.833125 L125.020391,12.2525 L133.600391,11.2201172 L133.600391,19.833125 L144.962188,19.833125 L144.077578,25.9146875 L133.600391,25.9146875 L133.600391,43.216875 C133.600391,44.9989583 134.03,46.3037826 134.889219,47.1313477 C135.748438,47.9589128 137.14543,48.3726953 139.080195,48.3726953 C140.316888,48.3726953 141.452188,48.2250065 142.486094,47.9296289 C143.52,47.6342513 144.458438,47.253138 145.301406,46.7862891 L148.265,52.333125 Z" id="Path" fill="#4E60B4"></path>
            <path d="M185.020977,45.1689063 C185.020977,46.4922656 185.215892,47.4538086 185.605723,48.0535352 C185.995553,48.6532617 186.617708,49.1047917 187.472188,49.408125 L185.632383,55.1382813 C183.795117,54.9432813 182.229108,54.4863346 180.934355,53.7674414 C179.639603,53.0485482 178.644206,51.9564974 177.948164,50.4912891 C176.661706,52.0729557 175.025957,53.2571745 173.040918,54.0439453 C171.055879,54.8307161 168.976302,55.2241016 166.802188,55.2241016 C163.295573,55.2241016 160.510983,54.2273503 158.448418,52.2338477 C156.385853,50.2403451 155.35457,47.6510938 155.35457,44.4660938 C155.35457,40.7939323 156.790241,37.9659245 159.661582,35.9820703 C162.532923,33.9982161 166.610065,33.0062891 171.893008,33.0062891 L176.681172,33.0062891 L176.681172,31.1608984 C176.681172,29.1276172 176.051738,27.6497982 174.792871,26.7274414 C173.534004,25.8050846 171.733047,25.3439063 169.39,25.3439063 C168.273151,25.3439063 166.88623,25.4936263 165.229238,25.7930664 C163.572246,26.0925065 161.871159,26.540651 160.125977,27.1375 L158.078984,21.263125 C160.263932,20.4414844 162.464538,19.8316016 164.680801,19.4334766 C166.897064,19.0353516 168.914518,18.8362891 170.733164,18.8362891 C175.563138,18.8362891 179.151934,19.8641016 181.499551,21.9197266 C183.847168,23.9753516 185.020977,26.8780078 185.020977,30.6276953 L185.020977,45.1689063 Z M169.596172,48.9973047 C170.906667,48.9973047 172.224355,48.6331185 173.549238,47.9047461 C174.874121,47.1763737 175.918099,46.1498307 176.681172,44.8251172 L176.681172,38.1082813 L173.301172,38.1082813 C170.118542,38.1082813 167.820352,38.6204102 166.406602,39.644668 C164.992852,40.6689258 164.285977,42.1140755 164.285977,43.9801172 C164.285977,45.5834505 164.740638,46.8204818 165.649961,47.6912109 C166.559284,48.5619401 167.874687,48.9973047 169.596172,48.9973047 Z" id="Shape" fill="#4E60B4"></path>
            <path d="M226.212187,14.9682813 L228.370391,21.6632813 C227.069036,22.128099 225.602982,22.451237 223.972227,22.6326953 C222.341471,22.8141536 220.483724,22.9048828 218.398984,22.9048828 C220.501328,23.8250391 222.096283,24.9847135 223.183848,26.3839063 C224.271413,27.783099 224.815195,29.548763 224.815195,31.6808984 C224.815195,33.9183203 224.24873,35.9120768 223.115801,37.662168 C221.982871,39.4122591 220.370651,40.785638 218.279141,41.7823047 C216.18763,42.7789714 213.696641,43.2773047 210.806172,43.2773047 C209.922917,43.2773047 209.135723,43.2374414 208.44459,43.1577148 C207.753457,43.0779883 207.07612,42.9555208 206.412578,42.7903125 C205.997526,43.0438802 205.667533,43.3959635 205.422598,43.8465625 C205.177663,44.2971615 205.055195,44.764349 205.055195,45.248125 C205.055195,45.8835677 205.312487,46.4385221 205.82707,46.9129883 C206.341654,47.3874544 207.44276,47.6246875 209.130391,47.6246875 L214.961602,47.6246875 C217.51319,47.6246875 219.745957,48.0492188 221.659902,48.8982813 C223.573848,49.7473438 225.068086,50.9017708 226.142617,52.3615625 C227.217148,53.8213542 227.754414,55.4861328 227.754414,57.3558984 C227.754414,60.8286589 226.247819,63.5408854 223.234629,65.4925781 C220.221439,67.4442708 215.821159,68.4201172 210.033789,68.4201172 C205.889701,68.4201172 202.663991,67.9969401 200.35666,67.1505859 C198.049329,66.3042318 196.433216,65.0757487 195.50832,63.4651367 C194.583424,61.8545247 194.120977,59.9029167 194.120977,57.6103125 L201.76,57.6103125 C201.76,58.7244531 201.980898,59.6407161 202.422695,60.3591016 C202.864492,61.077487 203.69375,61.6103516 204.910469,61.9576953 C206.127188,62.3050391 207.886419,62.4787109 210.188164,62.4787109 C212.493971,62.4787109 214.298737,62.2921745 215.602461,61.9191016 C216.906185,61.5460286 217.829473,61.0190039 218.372324,60.3380273 C218.915176,59.6570508 219.186602,58.8602083 219.186602,57.9475 C219.186602,56.7179167 218.668379,55.75375 217.631934,55.055 C216.595488,54.35625 215.128503,54.006875 213.230977,54.006875 L207.518594,54.006875 C204.061745,54.006875 201.541133,53.3321615 199.956758,51.9827344 C198.372383,50.6333073 197.580195,49.0641667 197.580195,47.2753125 C197.580195,46.0616406 197.912643,44.899681 198.577539,43.7894336 C199.242435,42.6791862 200.192383,41.728138 201.427383,40.9362891 C199.305404,39.8133464 197.77071,38.4658659 196.823301,36.8938477 C195.875892,35.3218294 195.402187,33.4259115 195.402187,31.2060938 C195.402187,28.7059635 196.033652,26.5348958 197.296582,24.6928906 C198.559512,22.8508854 200.307148,21.4207161 202.539492,20.4023828 C204.771836,19.3840495 207.330195,18.8748828 210.21457,18.8748828 C212.898529,18.8948568 215.174798,18.7337956 217.043379,18.3916992 C218.91196,18.0496029 220.564974,17.5748828 222.002422,16.9675391 C223.43987,16.3601953 224.843125,15.693776 226.212187,14.9682813 Z M210.377578,24.5958984 C208.359531,24.5958984 206.810788,25.1911393 205.731348,26.3816211 C204.651908,27.5721029 204.112188,29.1545313 204.112188,31.1289063 C204.112188,33.1764063 204.66418,34.7929427 205.768164,35.9785156 C206.872148,37.1640885 208.426224,37.756875 210.430391,37.756875 C212.388516,37.756875 213.883177,37.1802539 214.914375,36.0270117 C215.945573,34.8737695 216.461172,33.2065365 216.461172,31.0253125 C216.461172,28.868125 215.949551,27.2572591 214.926309,26.1927148 C213.903066,25.1281706 212.386823,24.5958984 210.377578,24.5958984 Z" id="Shape" fill="#4E60B4"></path>
            <path d="M248.62957,48.8739063 C250.663867,48.8739063 252.288613,48.525293 253.503809,47.8280664 C254.719004,47.1308398 255.326602,46.1408594 255.326602,44.858125 C255.326602,44.0158333 255.128132,43.3000716 254.731191,42.7108398 C254.334251,42.1216081 253.549258,41.5715625 252.376211,41.0607031 C251.203164,40.5498438 249.447826,39.9861719 247.110195,39.3696875 C244.914753,38.7945052 242.986419,38.0911849 241.325195,37.2597266 C239.663971,36.4282682 238.373535,35.3535677 237.453887,34.035625 C236.534238,32.7176823 236.074414,31.0491797 236.074414,29.0301172 C236.074414,27.0185026 236.63834,25.2477604 237.766191,23.7178906 C238.894043,22.1880208 240.525391,20.9919531 242.660234,20.1296875 C244.795078,19.2674219 247.359193,18.8362891 250.352578,18.8362891 C253.317865,18.8362891 255.902376,19.2214648 258.106113,19.9918164 C260.30985,20.762168 262.201875,21.7276042 263.782188,22.888125 L260.285391,28.1058984 C258.902448,27.2175651 257.402285,26.5006185 255.784902,25.9550586 C254.16752,25.4094987 252.430885,25.1367188 250.575,25.1367188 C248.542734,25.1367188 247.0661,25.4277799 246.145098,26.0099023 C245.224095,26.5920247 244.763594,27.4034245 244.763594,28.4441016 C244.763594,29.1760286 244.998288,29.7942904 245.467676,30.2988867 C245.937064,30.8034831 246.783164,31.2925065 248.005977,31.765957 C249.228789,32.2394076 250.975664,32.7982552 253.246602,33.4425 C255.478268,34.0589844 257.42429,34.7788932 259.084668,35.6022266 C260.745046,36.4255599 262.033197,37.5178646 262.949121,38.8791406 C263.865046,40.2404167 264.323008,42.0270703 264.323008,44.2391016 C264.323008,46.7233203 263.594551,48.780638 262.137637,50.4110547 C260.680723,52.0414714 258.764238,53.25125 256.388184,54.0403906 C254.012129,54.8295313 251.438789,55.2241016 248.668164,55.2241016 C245.419518,55.2241016 242.582878,54.756237 240.158242,53.8205078 C237.733607,52.8847786 235.680859,51.686849 234,50.2267188 L238.445391,45.2075 C239.788724,46.2708594 241.318171,47.1477669 243.03373,47.8382227 C244.74929,48.5286784 246.61457,48.8739063 248.62957,48.8739063 Z" id="Path" fill="#4E60B4"></path>
            <polygon id="Path" fill="#919191" points="295.216289 13.8125 279.876289 7.7025 283.873789 0 298.043789 8.6125"></polygon>
            <polygon id="Path" fill="#919191" points="334.216289 13.8125 318.876289 7.7025 322.873789 0 337.043789 8.6125"></polygon>
        </g>
    </g>
</svg>